<svg width="800" height="600" xmlns="http://www.w3.org/2000/svg">

 <g>
  <title>Layer 1</title>
  <ellipse stroke="#000000" stroke-width="5" ry="286.60251" rx="290.61008" id="svg_2" cy="319.31619" cx="429.77352" opacity="NaN" fill="none"/>
  <ellipse stroke="#000000" stroke-width="5" fill-opacity="0" ry="228.6761" rx="223.53738" id="svg_4" cy="322.36494" cx="432.21253" opacity="NaN" fill="#0f0d0d"/>
  <path stroke="#ffffff" d="m296.73389,525.75483l279.94429,0c1.13029,0 2.0201,-0.91543 2.0201,-2.09718l0,-55.62514l-281.96439,0c-13.50742,0 -22.09285,7.37341 -25.79637,16.80239c-1.49103,3.77825 -2.23654,7.91435 -2.23654,12.06709c0,16.43621 11.49534,28.85284 28.03291,28.85284zm-12.63365,-17.44319l283.70392,0l0,6.53287l-280.70584,0c-1.21046,-2.04724 -2.22051,-4.23597 -2.99809,-6.53287zm2.99809,-29.37713c-1.20244,2.04724 -2.21249,4.23597 -2.99809,6.53287l283.70392,0l0,-6.53287l-280.70584,0zm-4.74563,14.68857c-0.20041,2.1804 -0.20041,4.35248 0,6.53287l285.45147,0l0,-6.53287l-285.45147,0zm305.87693,42.03509c-2.98205,3.08751 -7.07837,5.0016 -11.55145,5.0016l-279.94429,0c-32.13724,0 -45.97333,-29.16075 -45.97333,-58.52124l0,-301.51921c0,-17.96749 6.96614,-33.8794 18.24504,-45.58865c11.43922,-11.87568 27.35152,-19.39889 44.92319,-20.30601l9.61151,0c0.20842,-0.01664 0.41685,-0.03329 0.62527,-0.03329c0.20842,0 0.42486,0.01664 0.62527,0.03329l259.98377,-0.03329c3.96806,0 7.18258,3.33718 7.18258,7.45663l0,338.66921c0.70543,1.61449 1.09823,3.40375 1.09823,5.27623l0,57.5642c0,4.64375 -1.83573,8.87972 -4.79373,11.96723l-0.03207,0.03329zm-10.62958,-82.53892l0,-323.52293l-246.25189,0l0,323.52293l246.25189,0zm-260.61706,0l0,-323.52293l-2.71752,0c-13.74791,0.7906 -26.17313,6.69932 -35.11128,15.97017c-8.67361,9.00455 -14.03649,21.24641 -14.03649,35.05283l0,286.13158c7.08639,-8.18066 17.6358,-13.63165 31.61618,-13.63165l20.24911,0z" fill-rule="nonzero" fill="black"/>
 </g>
</svg>